<?xml version="1.0" encoding="utf-8"?>
<!-- Generator: Adobe Illustrator 19.2.1, SVG Export Plug-In . SVG Version: 6.00 Build 0)  -->
<svg version="1.1" id="layer" xmlns="http://www.w3.org/2000/svg" xmlns:xlink="http://www.w3.org/1999/xlink" x="0px" y="0px"
	 viewBox="0 0 652 652" style="enable-background:new 0 0 652 652;" xml:space="preserve">
<style type="text/css">
	.st0{fill:#E4EEF3;}
	.st1{filter:url(#Adobe_OpacityMaskFilter);}
	.st2{fill:#FFFFFF;}
	.st3{mask:url(#b_1_);fill:#3F1D74;}
</style>
<g>
	<path class="st0" d="M534.7,300.1h-4v0.6h1.6v4.6h0.8v-4.6h1.6L534.7,300.1z M407.1,367v-86.6h-13v36.1h-39.6v-36.1h-12.9V367h12.9
		v-37.9h39.6V367H407.1z M416.8,304.2v34.1c0,10.4,1.9,18.1,5.8,22.5c3.7,4.4,9.6,6.6,17.8,6.8h3c8.1-0.2,14.1-2.5,17.8-6.8
		c3.7-4.4,5.8-12.1,5.8-22.5v-34.1h-12.3v34.1h0.1c0,6.5-1,11-2.9,13.6c-1.8,2.4-5,3.7-9.5,3.7h-0.6c-4.6,0-7.8-1.3-9.6-3.7
		c-1.9-2.6-2.9-7.1-2.9-13.6v-34.1H416.8z M493.4,318.6c2.6-2.7,6.7-3.9,11.8-3.9c5.3,0,9.2,1.3,11.9,4c2.7,2.7,4.1,7.1,4.1,13.3v7
		c0,5.1-1.4,9.2-4.3,12.2c-2.9,3-6.7,4.5-11.7,4.5c-5,0-8.9-1.5-11.6-4.5c-2.7-3-4.2-7.1-4.2-12.2v-7.1
		C489.5,325.7,490.9,321.3,493.4,318.6z M476.9,280.6v58.4c0,8.5,2.6,15.6,7.6,20.8c5.1,5.3,12,7.9,20.8,7.9
		c8.7,0,15.8-2.7,20.9-7.9c5.1-5.3,7.6-12.3,7.6-20.8v-7c-0.1-19.4-9.7-29.4-28.6-29.4c-6.7,0-11.9,2.1-15.8,6.1v-28L476.9,280.6
		L476.9,280.6z M101.4,341.3v1.3c-0.2,7.1,3.2,13.9,9,18.1c6,4.4,14.2,6.6,24.7,6.6c10.5,0,19.1-2.2,24.9-6.6
		c5.9-4.1,9.3-10.9,9-18.1v-1.8c0.1-4.7-1.4-9.3-4.4-13c-3.1-3.6-7.2-6.3-11.7-7.7L123,310c-1.8-0.6-3.4-1.5-4.8-2.8
		c-1-0.8-1.6-2.1-1.7-3.4v-2c0-7.1,5.9-10.6,17.9-10.8h1.1c12,0,18.2,3.2,18.9,9.6l0.1,1h12.9v-1.1c-0.6-14.7-11.3-22.2-31.9-22.2
		h-1.3c-20.2,0.2-30.3,8.1-30.3,23.5v2c0,4.1,1.4,8.1,4,11.2c2.6,3.1,6.5,5.5,11.3,7l29.8,10c5.1,1.7,7.6,4.5,7.6,8.6v1.8
		c0,3.7-1.8,6.4-5.5,8.6c-3.7,2.2-9.1,3.4-15.9,3.4c-6.8,0-12-1.1-15.7-3.4c-3.7-2.3-5.3-5-5.3-8.6v-1.3
		C114.2,341.3,101.4,341.3,101.4,341.3z M540.6,305.3v-5.2h-1.3l-1.4,3.7l-1.4-3.7h-1.2v5.2h0.7V301l1.7,4.3h0.5l1.6-4.3v4.3H540.6z
		 M205,316.9v-12.7h-13.4v-23.6h-12.5v58.5c0,8.5,2.6,15.6,7.7,20.8c4.6,4.6,10.6,7.3,17.1,7.7l1.2,0.1v-12.1l-0.9-0.1
		c-3.2-0.5-6.1-2-8.3-4.3c-2.8-3-4.2-7.1-4.2-12.2v-22.2L205,316.9L205,316.9z M291.4,318.6c2.6-2.7,6.6-3.9,11.8-3.9
		c5.3,0,9.2,1.3,11.9,4c2.7,2.7,4.1,7.1,4.1,13.3v7c0,5.2-1.4,9.1-4.3,12.2c-2.9,3.1-6.7,4.5-11.7,4.5c-5.1,0-8.9-1.5-11.6-4.5
		c-2.7-3-4.2-7.1-4.2-12.2v-7.1C287.4,325.7,288.8,321.3,291.4,318.6z M274.9,280.6v58.4c0,8.5,2.6,15.6,7.7,20.8
		c5.1,5.3,12,7.9,20.8,7.9c8.7,0,15.8-2.7,20.9-7.9c5.1-5.3,7.7-12.3,7.7-20.8v-7c-0.1-19.4-9.6-29.4-28.6-29.4
		c-6.7,0-11.9,2.1-15.8,6.1v-28L274.9,280.6L274.9,280.6z M214.9,304.2v34.1c0,10.4,1.9,18.1,5.8,22.5c3.7,4.4,9.6,6.6,17.8,6.8h2.9
		c8.1-0.2,14.1-2.5,17.8-6.8c3.8-4.6,5.8-12.1,5.8-22.5v-34.1h-12.2v34.1c0,6.5-1,11.1-2.9,13.6c-1.9,2.5-5,3.7-9.6,3.7h-0.4
		c-4.6,0-7.9-1.3-9.6-3.7c-1.9-2.6-2.9-7.1-2.9-13.6v-34.1C227.2,304.2,214.9,304.2,214.9,304.2z"/>
	<g transform="translate(0 .4)">
		<defs>
			<filter id="Adobe_OpacityMaskFilter" filterUnits="userSpaceOnUse" x="20.8" y="186.1" width="600" height="271.5">
				<feColorMatrix  type="matrix" values="1 0 0 0 0  0 1 0 0 0  0 0 1 0 0  0 0 0 1 0"/>
			</filter>
		</defs>
		<mask maskUnits="userSpaceOnUse" x="20.8" y="186.1" width="600" height="271.5" id="b_1_">
			<g class="st1">
				<path id="a_1_" class="st2" d="M20.8,186.1h600v271.4h-600V186.1z"/>
			</g>
		</mask>
		<path class="st3" d="M537.9,303.4l-1.4-3.7h-1.2v5.2h0.7v-4.3l1.7,4.3h0.5l1.6-4.3v4.3h0.8v-5.2h-1.3
			C539.3,299.7,537.9,303.4,537.9,303.4z M530.7,300.3h1.6v4.6h0.8v-4.6h1.6v-0.6h-4C530.7,299.7,530.7,300.3,530.7,300.3z
			 M195.8,350.9c-2.8-3-4.2-7-4.2-12.2v-22.2H205v-12.7h-13.4v-23.6h-12.5v58.6c0,8.5,2.6,15.6,7.7,20.8c4.6,4.6,10.6,7.3,17.1,7.7
			l1.2,0.1v-12.1l-0.9-0.1C201,354.8,198,353.3,195.8,350.9L195.8,350.9z M153.1,319.7l-30.1-10c-1.8-0.6-3.4-1.5-4.8-2.8
			c-1-0.8-1.6-2.1-1.7-3.4v-2c0-7,5.9-10.6,17.9-10.8h1.1c12,0,18.2,3.2,18.9,9.6l0.1,1h12.9v-1.1c-0.6-14.7-11.3-22.2-31.9-22.2
			h-1.3c-20.2,0.2-30.3,8.1-30.3,23.5v2c0,4.1,1.4,8.1,4,11.2c2.6,3.1,6.5,5.5,11.3,7l29.8,10c5.1,1.7,7.5,4.5,7.5,8.6v1.8
			c0,3.7-1.8,6.4-5.5,8.6s-9.1,3.4-15.9,3.4c-6.8,0-12-1.1-15.7-3.4s-5.3-5-5.3-8.6v-1.3h-12.8v1.3c-0.2,7.1,3.2,13.9,9,18.1
			c6,4.4,14.2,6.6,24.7,6.6c10.5,0,19.1-2.2,24.9-6.6c5.9-4.1,9.3-10.9,9-18.1v-1.8c0.1-4.7-1.4-9.3-4.4-13
			C161.7,323.8,157.6,321.1,153.1,319.7z M454.7,337.9c0,6.4-1,11-2.9,13.6c-1.8,2.4-5,3.7-9.5,3.7h-0.6c-4.6,0-7.8-1.3-9.6-3.7
			c-1.9-2.6-2.9-7.2-2.9-13.6v-34.1h-12.3v34.1c0,10.4,1.9,18.1,5.8,22.5c3.7,4.4,9.6,6.6,17.8,6.9h3c8.1-0.2,14.1-2.5,17.8-6.8
			c3.7-4.4,5.8-12.1,5.8-22.5v-34.1h-12.3L454.7,337.9C454.6,337.9,454.7,337.9,454.7,337.9z M252.6,337.9c0,6.4-1,11.1-2.9,13.6
			c-1.9,2.5-5,3.7-9.6,3.7h-0.4c-4.6,0-7.9-1.3-9.6-3.7c-1.9-2.6-2.9-7.2-2.9-13.6v-34.1h-12.3v34.1c0,10.4,1.9,18.1,5.8,22.5
			c3.7,4.4,9.6,6.6,17.8,6.9h2.9c8.1-0.2,14.1-2.5,17.8-6.8c3.8-4.6,5.8-12.1,5.8-22.5v-34.1h-12.2
			C252.6,303.8,252.6,337.9,252.6,337.9z M505.3,314.3c5.3,0,9.2,1.3,11.9,4c2.7,2.7,4.1,7.2,4.1,13.3v7c0,5.1-1.4,9.2-4.3,12.2
			c-2.9,3-6.8,4.5-11.7,4.5c-5,0-8.9-1.5-11.6-4.5c-2.7-3-4.2-7-4.2-12.2v-7.1c0-6.1,1.4-10.6,4-13.3
			C496,315.5,500.1,314.3,505.3,314.3z M505.3,302.1c-6.7,0-11.9,2.1-15.8,6v-28h-12.5v58.3c0,8.5,2.6,15.6,7.7,20.8
			c5.1,5.3,12,7.9,20.8,7.9s15.8-2.7,20.9-7.9c5.1-5.3,7.7-12.3,7.7-20.8v-7C533.8,312,524.1,302.1,505.3,302.1L505.3,302.1z
			 M394.1,316.1h-39.6V280h-12.9v86.6h12.9v-37.9h39.6v37.9h13V280h-13L394.1,316.1L394.1,316.1z M303.2,314.3c5.3,0,9.2,1.3,11.9,4
			c2.7,2.7,4.1,7.2,4.1,13.3v7c0,5.2-1.4,9.1-4.3,12.2c-2.9,3.1-6.7,4.5-11.7,4.5c-5.1,0-8.9-1.5-11.6-4.5c-2.7-3-4.2-7-4.2-12.2
			v-7.1c0-6.1,1.4-10.6,4-13.3C293.9,315.5,298,314.3,303.2,314.3z M303.2,302.1c-6.6,0-11.9,2.1-15.8,6v-28h-12.5v58.3
			c0,8.5,2.6,15.6,7.7,20.8c5.1,5.3,12,7.9,20.8,7.9c8.7,0,15.8-2.7,20.9-7.9c5.1-5.3,7.7-12.3,7.7-20.8v-7
			C331.7,312,322.2,302.1,303.2,302.1L303.2,302.1z M33.1,446c-3,1.2-4.7-0.3-3.7-3.4l8.4-27.3c1.1-3.7,1.4-7.6,1.1-11.4L20.9,231.8
			c-0.3-3.1,1.9-5.9,5-6.2c0,0,0,0,0,0l0.2,0l589.3-39.5c2.7-0.2,5.1,1.8,5.4,4.5c0,0.3,0,0.6,0,0.9l-23.9,260.5
			c-0.4,3.2-3.2,5.6-6.5,5.5L89.7,425.4c-3.9-0.1-7.7,0.5-11.3,1.9L33.1,446L33.1,446z"/>
	</g>
</g>
</svg>
