<svg xmlns="http://www.w3.org/2000/svg" width="96" height="80" viewBox="0 0 96 80">
  <g fill="none" transform="translate(17 11)">
    <path fill="#FFF" stroke="#C7CFD5" stroke-linecap="square" stroke-linejoin="round" stroke-width="4" d="M19.1457771,19.619135 L32.9078013,4.75806452 L47.3950542,19.6039721 C48.1241437,20.3511114 48.5322581,21.353678 48.5322581,22.3976074 L48.5322581,51.1935484 C48.5322581,53.4026874 46.7413971,55.1935484 44.5322581,55.1935484 L22.0806452,55.1935484 C19.8715062,55.1935484 18.0806452,53.4026874 18.0806452,51.1935484 L18.0806452,22.3369557 C18.0806452,21.3291858 18.4610426,20.3585529 19.1457771,19.619135 Z" transform="rotate(-45 33.306 29.976)"/>
    <ellipse cx="27.121" cy="21.887" fill="#C7CFD5" rx="5.234" ry="4.758"/>
    <path stroke="#C7CFD5" stroke-linecap="round" stroke-linejoin="round" stroke-width="4" d="M15.7016129,28.5483871 C22.7966904,28.5483871 28.5483871,22.7966904 28.5483871,15.7016129 C28.5483871,8.60653543 22.7966904,2.85483871 15.7016129,2.85483871 C8.60653543,2.85483871 2.85483871,8.60653543 2.85483871,15.7016129" transform="rotate(-79 15.702 15.702)"/>
  </g>
</svg>
