<svg xmlns="http://www.w3.org/2000/svg" width="96" height="80" viewBox="0 0 96 80">
  <g fill="none" fill-rule="evenodd" transform="translate(20 12)">
    <rect width="56" height="56" fill="#FFF" fill-rule="nonzero" stroke="#C7CFD5" stroke-linecap="square" stroke-linejoin="round" stroke-width="4" rx="4"/>
    <path fill="#C7CFD5" stroke="#C7CFD5" d="M7.624,43.416 C7.624,43.152 7.72,42.888 7.84,42.624 L13.696,29.4 C14.104,28.488 14.848,27.936 15.856,27.936 L16.072,27.936 C17.08,27.936 17.8,28.488 18.208,29.4 L24.064,42.624 C24.184,42.888 24.256,43.128 24.256,43.368 C24.256,44.352 23.488,45.144 22.504,45.144 C21.64,45.144 21.064,44.64 20.728,43.872 L19.6,41.232 L12.208,41.232 L11.032,43.992 C10.72,44.712 10.096,45.144 9.328,45.144 C8.368,45.144 7.624,44.376 7.624,43.416 Z M13.576,37.968 L18.232,37.968 L15.904,32.424 L13.576,37.968 Z M27.16,43.296 L27.16,30.048 C27.16,29.016 27.976,28.2 29.008,28.2 L34.024,28.2 C38.032,28.2 40.456,30.576 40.456,34.008 L40.456,34.056 C40.456,37.944 37.432,39.96 33.664,39.96 L30.856,39.96 L30.856,43.296 C30.856,44.328 30.04,45.144 29.008,45.144 C27.976,45.144 27.16,44.328 27.16,43.296 Z M30.856,36.672 L33.784,36.672 C35.632,36.672 36.712,35.568 36.712,34.128 L36.712,34.08 C36.712,32.424 35.56,31.536 33.712,31.536 L30.856,31.536 L30.856,36.672 Z M43.36,43.296 L43.36,29.904 C43.36,28.872 44.176,28.056 45.208,28.056 C46.24,28.056 47.056,28.872 47.056,29.904 L47.056,43.296 C47.056,44.328 46.24,45.144 45.208,45.144 C44.176,45.144 43.36,44.328 43.36,43.296 Z"/>
    <circle cx="8" cy="8" r="3" fill="#C7CFD5" fill-rule="nonzero"/>
    <circle cx="16" cy="8" r="3" fill="#C7CFD5" fill-rule="nonzero"/>
    <circle cx="24" cy="8" r="3" fill="#C7CFD5" fill-rule="nonzero"/>
    <path stroke="#C7CFD5" stroke-linecap="square" stroke-linejoin="round" stroke-width="4" d="M0.49122807,16 L55.5087719,16"/>
  </g>
</svg>
