<svg xmlns="http://www.w3.org/2000/svg" width="96" height="80" viewBox="0 0 96 80">
  <g fill="none" stroke="#C7CFD5" stroke-linecap="round" stroke-linejoin="round" stroke-width="4" transform="translate(20 12)">
    <path fill="#FFF" d="M39.2137929,26 C43.4929916,26 46.7023907,26 48.84199,26 C49.54377,26 50.59644,26 52,26 C54.209139,26 56,27.790861 56,30 L56,52 C56,54.209139 54.209139,56 52,56 L4,56 C1.790861,56 2.705415e-16,54.209139 0,52 L0,30 C-2.705415e-16,27.790861 1.790861,26 4,26 L16.8281579,26"/>
    <g transform="translate(12)">
      <path d="M0,2.57571742e-14 L12,12" transform="rotate(-90 6 6)"/>
      <path d="M12,2 L12,40"/>
      <g transform="rotate(180 16 24)">
        <path d="M0,2.57571742e-14 L12,12" transform="rotate(-90 6 6)"/>
        <path d="M12,2 L12,40"/>
      </g>
    </g>
  </g>
</svg>
