<svg xmlns="http://www.w3.org/2000/svg" width="96" height="80" viewBox="0 0 96 80">
  <g fill="none" fill-rule="evenodd" stroke="#C7CFD5" transform="translate(25 13)">
    <path fill="#FFF" fill-rule="nonzero" stroke-linecap="square" stroke-linejoin="round" stroke-width="4" d="M4,0 L30,0 L46,15.5 L46,50 C46,52.209139 44.209139,54 42,54 L4,54 C1.790861,54 2.705415e-16,52.209139 0,50 L-4.4408921e-16,4 C-7.1463071e-16,1.790861 1.790861,4.05812251e-16 4,0 Z"/>
    <polygon fill="#FFF" fill-rule="nonzero" stroke-linecap="square" stroke-linejoin="round" stroke-width="4" points="30 0 46 16 30 16"/>
    <path fill="#C7CFD5" d="M7.496,43.864 L7.496,35.032 C7.496,34.344 8.04,33.8 8.728,33.8 L12.072,33.8 C14.744,33.8 16.36,35.384 16.36,37.672 L16.36,37.704 C16.36,40.296 14.344,41.64 11.832,41.64 L9.96,41.64 L9.96,43.864 C9.96,44.552 9.416,45.096 8.728,45.096 C8.04,45.096 7.496,44.552 7.496,43.864 Z M9.96,39.448 L11.912,39.448 C13.144,39.448 13.864,38.712 13.864,37.752 L13.864,37.72 C13.864,36.616 13.096,36.024 11.864,36.024 L9.96,36.024 L9.96,39.448 Z M18.184,43.768 L18.184,35.032 C18.184,34.344 18.728,33.8 19.416,33.8 L22.552,33.8 C26.072,33.8 28.504,36.216 28.504,39.368 L28.504,39.4 C28.504,42.552 26.072,45 22.552,45 L19.416,45 C18.728,45 18.184,44.456 18.184,43.768 Z M20.648,42.776 L22.552,42.776 C24.568,42.776 25.928,41.416 25.928,39.432 L25.928,39.4 C25.928,37.416 24.568,36.024 22.552,36.024 L20.648,36.024 L20.648,42.776 Z M30.696,43.864 L30.696,35.032 C30.696,34.344 31.24,33.8 31.928,33.8 L38.2,33.8 C38.824,33.8 39.32,34.296 39.32,34.92 C39.32,35.544 38.824,36.04 38.2,36.04 L33.16,36.04 L33.16,38.424 L37.48,38.424 C38.104,38.424 38.6,38.92 38.6,39.544 C38.6,40.168 38.104,40.664 37.48,40.664 L33.16,40.664 L33.16,43.864 C33.16,44.552 32.616,45.096 31.928,45.096 C31.24,45.096 30.696,44.552 30.696,43.864 Z"/>
  </g>
</svg>
