<svg xmlns="http://www.w3.org/2000/svg" width="151" height="119" viewBox="0 0 151 119">
  <defs>
    <linearGradient id="contact-us-mascot-a" x1="23.162%" x2="50%" y1="0%" y2="50%">
      <stop offset="0%"/>
      <stop offset="100%"/>
    </linearGradient>
  </defs>
  <g fill="none" transform="translate(0 -1)">
    <g transform="translate(108.867 77.641)">
      <rect width="12.1" height="11.823" x="2.55" y="21.165" fill="#D8D8D8" stroke="#F5F5F5" stroke-width="5.1" rx="5.912"/>
      <rect width="30.96" height="35.538" x="10.32" y="6.769" fill="#F5F5F5" rx="6.8"/>
      <path fill="#000" fill-opacity=".1" d="M35.7005758,7.93351386 L35.7005758,7.93351386 C33.386816,14.0489052 28.2387051,18.6535486 21.9041075,20.2735388 L20.3115205,20.6808221 C18.8620143,21.0515143 17.3864519,20.1769627 17.0157597,18.7274564 C16.7561437,17.712288 17.105253,16.6384343 17.9122052,15.9700067 L31.35892,4.8316091 C32.5326985,3.85932612 34.2724251,4.02267053 35.2447081,5.19644905 C35.877622,5.96052776 36.0516732,7.00554464 35.7005758,7.93351386 Z" transform="rotate(40 26.076 12.761)"/>
    </g>
    <ellipse cx="34.5" cy="40.5" fill="#000" rx="16.5" ry="18.5"/>
    <path fill="#00B5FF" d="M48.3505265,116.727997 C74.7143912,116.727997 94.0865263,95.355862 94.0865263,68.9919973 C94.0865263,42.6281326 60.3505271,22 18.9505271,1 C18.9505271,42.6281326 0.614526722,42.6281326 0.614526722,68.9919973 C0.614526722,95.355862 21.9866618,116.727997 48.3505265,116.727997 Z" transform="matrix(-1 0 0 1 94.701 0)"/>
    <ellipse cx="85.5" cy="50.5" fill="#000" rx="16.5" ry="18.5"/>
    <path stroke="#000" stroke-linecap="square" stroke-linejoin="round" stroke-width="10" d="M90.0158087,28.5686094 C90.0158087,16.8751667 78.1513545,7.39575847 63.5158087,7.39575847 C48.8802628,7.39575847 37.0158087,16.8751667 37.0158087,28.5686094" transform="rotate(15 63.516 17.982)"/>
    <path fill="#00B5FF" d="M15.9815874,116.836606 C42.3454521,116.836606 58.7175871,95.4644712 58.7175871,69.1006065 C58.7175871,50.3106937 45.565051,34.4343159 20.1470071,19.260326 C9.90134807,13.1439023 -10.3822773,116.836606 15.9815874,116.836606 Z" transform="matrix(-1 0 0 1 61.718 0)"/>
    <rect width="16" height="10" x="38" y="72" fill="#4B4B4B" rx="5" transform="rotate(20 46 77)"/>
    <ellipse cx="47.8" cy="45.209" fill="#FFF" fill-opacity=".5" stroke="url(#contact-us-mascot-a)" stroke-linecap="square" stroke-linejoin="round" stroke-width="3.203" rx="11.754" ry="13.881"/>
    <ellipse cx="16.516" cy="43.381" fill="#FFF" fill-opacity=".5" stroke="url(#contact-us-mascot-a)" stroke-linecap="square" stroke-linejoin="round" stroke-width="3.203" rx="9.083" ry="12.381"/>
    <path fill="#FFF" fill-opacity=".5" stroke="url(#contact-us-mascot-a)" stroke-linecap="square" stroke-linejoin="round" stroke-width="3.203" d="M33.909895,41.8843591 C30.4447732,41.8843591 27.635737,44.691299 27.635737,48.1538349" transform="rotate(45 30.773 45.02)"/>
    <path stroke="#000" stroke-linecap="round" stroke-linejoin="round" stroke-width="3.203" d="M59.7400515,48.7833111 L70.4619788,50.2932781 C72.2642163,51.111365 73.165335,52.7661075 73.165335,55.2575057"/>
    <path stroke="#000" stroke-linecap="round" stroke-linejoin="round" stroke-width="3.203" d="M52.1463177,62.5227371 L63.868245,65.0327042 C69.6510897,66.2415806 73.4610737,71.4136544 75.2981968,80.5489258" transform="rotate(113 63.722 71.536)"/>
    <ellipse cx="91.5" cy="50" fill="#4B4B4B" rx="10.5" ry="14"/>
  </g>
</svg>
