<svg xmlns="http://www.w3.org/2000/svg" width="154" height="110" viewBox="0 0 154 110">
  <defs>
    <linearGradient id="mascot-illustration-06-a" x1="23.162%" x2="50%" y1="0%" y2="50%">
      <stop offset="0%"/>
      <stop offset="100%"/>
    </linearGradient>
    <linearGradient id="mascot-illustration-06-b" x1="-103.747%" y1="-70.187%" y2="0%">
      <stop offset="0%" stop-color="#747474"/>
      <stop offset="100%"/>
    </linearGradient>
  </defs>
  <g fill="none" transform="translate(-9 -15)">
    <g transform="scale(-1 1) rotate(10 -53.406 -610.43)">
      <path stroke="#1579B0" stroke-linecap="square" stroke-linejoin="round" stroke-width="8.542" d="M13.1391591,41.4633368 C13.1391591,41.4633368 21.6874752,57.4794682 17.4133172,73.4955997" transform="rotate(112 15.875 57.48)"/>
      <path fill="#00B5FF" d="M66.528546,103.151889 C89.6628395,103.151889 108.41689,84.397839 108.41689,61.2635455 C108.41689,38.129252 91.6952526,17.3745033 91.6952526,1.69462101e-06 C65.9754642,1.69462101e-06 24.6402022,38.129252 24.6402022,61.2635455 C24.6402022,84.397839 43.3942525,103.151889 66.528546,103.151889 Z"/>
      <path stroke="#1579B0" stroke-linecap="square" stroke-linejoin="round" stroke-width="8.542" d="M93.3644719,71.1196264 C93.3644719,71.1196264 101.912788,87.1357578 97.6386299,103.151889"/>
      <g stroke-linejoin="round" stroke-width="3.203" transform="rotate(5 -298.575 320.572)">
        <ellipse cx="38.467" cy="13.881" fill="#FFF" fill-opacity=".5" stroke="url(#mascot-illustration-06-a)" stroke-linecap="square" rx="11.754" ry="13.881"/>
        <ellipse cx="9.083" cy="13.881" fill="#FFF" fill-opacity=".5" stroke="url(#mascot-illustration-06-a)" stroke-linecap="square" rx="9.083" ry="13.881"/>
        <path stroke="url(#mascot-illustration-06-b)" stroke-linecap="square" d="M24.5764088,11.7451631 C22.2158565,11.7451631 20.3022508,13.6573407 20.3022508,16.0161314" transform="rotate(45 22.44 13.88)"/>
        <path stroke="#000" stroke-linecap="round" d="M50.7556269,14.4145183 L62.4775542,16.9244854 C64.2797916,17.7425722 65.1809103,19.3973147 65.1809103,21.888713"/>
      </g>
    </g>
    <g transform="rotate(-13 144.27 -454.776)">
      <rect width="14" height="14" x="3" y="25" stroke="#E9E9E9" stroke-width="6" rx="7"/>
      <rect width="36" height="42" x="12" y="8" fill="#E9E9E9" rx="8"/>
      <path fill="#000" fill-opacity=".1" d="M41.5122974,9.37597093 L41.5122974,9.37597093 C38.822404,16.6018416 32.7759171,22.0606427 25.3135725,24.0002677 L23.6180471,24.4409715 C21.9165436,24.8832291 20.1786818,23.8624086 19.7364242,22.1609051 C19.427862,20.9737699 19.8288283,19.7149601 20.767153,18.9249934 L36.3929924,5.76974663 C37.7608512,4.61815921 39.8032659,4.7934818 40.9548533,6.16134059 C41.7064598,7.05410087 41.9194355,8.28227454 41.5122974,9.37597093 Z" transform="rotate(40 30.32 15.081)"/>
    </g>
  </g>
</svg>
